HIERARCHY
ROOT Hips
{
  OFFSET -27.3825 93.2414 -29.4013
  CHANNELS 6 Xposition Yposition Zposition Zrotation Xrotation Yrotation
  JOINT LeftUpLeg
  {
    OFFSET 9.63379 -0.250344 0
    CHANNELS 6 Xposition Yposition Zposition Zrotation Xrotation Yrotation
    JOINT LeftLeg
    {
      OFFSET 0 -40.4779 -1.71313
      CHANNELS 6 Xposition Yposition Zposition Zrotation Xrotation Yrotation
      JOINT LeftFoot
      {
        OFFSET 0.0126047 -40.4416 -0.864524
        CHANNELS 6 Xposition Yposition Zposition Zrotation Xrotation Yrotation
        JOINT LeftToeBase
        {
          OFFSET -0.183287 -12.1867 8.28226
          CHANNELS 6 Xposition Yposition Zposition Zrotation Xrotation Yrotation
          End Site
          {
            OFFSET 0 0 9.15615
          }
        }
      }
    }
  }
  JOINT RightUpLeg
  {
    OFFSET -9.63379 -0.250344 0
    CHANNELS 6 Xposition Yposition Zposition Zrotation Xrotation Yrotation
    JOINT RightLeg
    {
      OFFSET 0 -40.478 -1.71313
      CHANNELS 6 Xposition Yposition Zposition Zrotation Xrotation Yrotation
      JOINT RightFoot
      {
        OFFSET -0.0126047 -40.4414 -0.864524
        CHANNELS 6 Xposition Yposition Zposition Zrotation Xrotation Yrotation
        JOINT RightToeBase
        {
          OFFSET 0.183287 -12.1867 8.28226
          CHANNELS 6 Xposition Yposition Zposition Zrotation Xrotation Yrotation
          End Site
          {
            OFFSET 0.00319481 0 9.156
          }
        }
      }
    }
  }
  JOINT Spine
  {
    OFFSET 0 5.60909 -1.89659
    CHANNELS 6 Xposition Yposition Zposition Zrotation Xrotation Yrotation
    JOINT Spine1
    {
      OFFSET 0 6.56349 1.09934
      CHANNELS 6 Xposition Yposition Zposition Zrotation Xrotation Yrotation
      JOINT Spine2
      {
        OFFSET 0 7.57662 1.04304
        CHANNELS 6 Xposition Yposition Zposition Zrotation Xrotation Yrotation
        JOINT Spine3
        {
          OFFSET 0 8.29213 0.399731
          CHANNELS 6 Xposition Yposition Zposition Zrotation Xrotation Yrotation
          JOINT Spine4
          {
            OFFSET 0 8.9581 -0.526302
            CHANNELS 6 Xposition Yposition Zposition Zrotation Xrotation Yrotation
            JOINT Neck
            {
              OFFSET 0 18.4163 -4.35419
              CHANNELS 6 Xposition Yposition Zposition Zrotation Xrotation Yrotation
              JOINT Head
              {
                OFFSET 0 8.97127 1.78542
                CHANNELS 6 Xposition Yposition Zposition Zrotation Xrotation Yrotation
                End Site
                {
                  OFFSET 0 0 0
                }
              }
            }
            JOINT LeftShoulder
            {
              OFFSET 6.14423 15.3316 -3.79324
              CHANNELS 6 Xposition Yposition Zposition Zrotation Xrotation Yrotation
              JOINT LeftArm
              {
                OFFSET 9.01906 -1.11411 -1.79347
                CHANNELS 6 Xposition Yposition Zposition Zrotation Xrotation Yrotation
                JOINT LeftForeArm
                {
                  OFFSET 27.687 0 0
                  CHANNELS 6 Xposition Yposition Zposition Zrotation Xrotation Yrotation
                  JOINT LeftHand
                  {
                    OFFSET 27.8738 0 0
                    CHANNELS 6 Xposition Yposition Zposition Zrotation Xrotation Yrotation
                    End Site
                    {
                      OFFSET 0 0 0
                    }
                  }
                }
              }
            }
            JOINT RightShoulder
            {
              OFFSET -6.14423 15.3316 -3.79324
              CHANNELS 6 Xposition Yposition Zposition Zrotation Xrotation Yrotation
              JOINT RightArm
              {
                OFFSET -9.01884 -1.11411 -1.79347
                CHANNELS 6 Xposition Yposition Zposition Zrotation Xrotation Yrotation
                JOINT RightForeArm
                {
                  OFFSET -27.0381 0.00109999 0
                  CHANNELS 6 Xposition Yposition Zposition Zrotation Xrotation Yrotation
                  JOINT RightHand
                  {
                    OFFSET -28.5227 0 0
                    CHANNELS 6 Xposition Yposition Zposition Zrotation Xrotation Yrotation
                    End Site
                    {
                      OFFSET 0 0 0
                    }
                  }
                }
              }
            }
          }
        }
      }
    }
  }
}
MOTION
Frames:	6
Frame Time:	0.00833333
-27.3825 93.2414 -29.4013 -0.375557 0.00543465 0.0190656 9.63379 -0.250344 -7.15256e-007 5.36295 -1.55744 9.91421 0 -40.4779 -1.71313 0.0581801 2.66554 -0.121913 0.0126047 -40.4416 -0.864524 0.267489 -0.0879328 -0.00552328 -0.183287 -12.1867 8.28226 4.23581e-011 -1.205e-010 -1.02754e-010 -9.63379 -0.250344 -7.15256e-007 -8.1377 -1.21069 0.101245 0 -40.478 -1.71313 4.30285 4.42539 3.49872 -0.0126047 -40.4414 -0.864524 -0.151915 -1.05761 0.00216441 0.183287 -12.1867 8.28226 5.37423e-011 -2.03436e-012 1.67249e-011 -2.64698e-023 5.60909 -1.89659 0.401742 5.10959e-005 -0.0244136 0 6.56349 1.09934 0.0152472 -0.00601447 -0.00202053 0 7.57662 1.04304 0.0152471 -0.0060107 -0.00202068 0 8.29213 0.399731 0.0152471 -0.00600693 -0.00202083 0 8.9581 -0.526302 0.0152471 -0.00600317 -0.00202098 0 18.4163 -4.35419 -0.0141052 -0.126862 0.00171592 1.05879e-022 8.97127 1.78542 0.0287714 0.157232 -0.0089681 6.14423 15.3316 -3.79324 -0.793497 -0.0575795 4.24575 9.01906 -1.11411 -1.79347 -1.41914 0.965606 -3.4556 27.687 0 0 0.00179038 -9.41813 4.64147e-012 27.8738 0 0 2.36672 -1.20366 -0.585221 -6.14423 15.3316 -3.79324 6.49769 0.250733 -1.78065 -9.01884 -1.11411 -1.79347 -7.44661 9.75112 11.4436 -27.0381 0.00109999 5.96046e-008 2.26245 -9.74467 1.28058e-007 -28.5227 0 0 -8.16196 -0.472317 2.42811 
-27.3842 93.2427 -29.4029 -0.37556 0.0107746 0.0237662 9.63379 -0.250344 -7.15256e-007 5.3675 -1.56494 9.91704 0 -40.4779 -1.71313 0.0566404 2.66452 -0.121913 0.0126047 -40.4416 -0.864524 0.267489 -0.0879328 -0.00552328 -0.183287 -12.1867 8.28226 4.23581e-011 -1.205e-010 -1.02754e-010 -9.63379 -0.250344 -7.15256e-007 -8.13765 -1.21417 0.102983 0 -40.478 -1.71313 4.30217 4.41743 3.50038 -0.0126047 -40.4414 -0.864524 -0.151915 -1.05474 0.0021644 0.183287 -12.1867 8.28226 5.37423e-011 -2.03436e-012 1.67249e-011 -2.64698e-023 5.60909 -1.89659 0.401742 5.10959e-005 -0.0244136 0 6.56349 1.09934 0.0152469 -0.00601447 -0.0047433 0 7.57662 1.04304 0.0152468 -0.0060107 -0.00474392 0 8.29213 0.399731 0.0152468 -0.00600693 -0.00474454 0 8.9581 -0.526302 0.0152468 -0.00600317 -0.00474516 0 18.4163 -4.35419 -0.0262846 -0.160578 0.00275291 1.05879e-022 8.97127 1.78542 0.0586927 0.221694 -0.0182877 6.14423 15.3316 -3.79324 -0.768091 -0.0575786 4.258 9.01906 -1.11411 -1.79347 -1.42139 0.948309 -3.47077 27.687 0 0 0.0107927 -9.37389 4.64088e-012 27.8738 0 0 2.39503 -1.1973 -0.637498 -6.14423 15.3316 -3.79324 6.51466 0.250733 -1.78453 -9.01884 -1.11411 -1.79347 -7.44225 9.75204 11.4388 -27.0381 0.00109999 5.96046e-008 2.25212 -9.79293 1.28076e-007 -28.5227 0 0 -8.12211 -0.456696 2.2111 
-27.386 93.2439 -29.4044 -0.375563 0.0157598 0.0284765 9.63379 -0.250344 -7.15256e-007 5.3718 -1.57204 9.91963 0 -40.4779 -1.71313 0.0553089 2.6635 -0.121913 0.0126047 -40.4416 -0.864524 0.267489 -0.0879328 -0.00552328 -0.183287 -12.1867 8.28226 4.23581e-011 -1.205e-010 -1.02754e-010 -9.63379 -0.250344 -7.15256e-007 -8.13761 -1.21738 0.104816 0 -40.478 -1.71313 4.30166 4.40995 3.50185 -0.0126047 -40.4414 -0.864524 -0.151915 -1.05202 0.0021644 0.183287 -12.1867 8.28226 5.37423e-011 -2.03436e-012 1.67249e-011 -2.64698e-023 5.60909 -1.89659 0.401742 5.10959e-005 -0.0244136 0 6.56349 1.09934 0.0152466 -0.00601447 -0.00743945 0 7.57662 1.04304 0.0152466 -0.0060107 -0.00744051 0 8.29213 0.399731 0.0152465 -0.00600693 -0.00744158 0 8.9581 -0.526302 0.0152465 -0.00600317 -0.00744264 0 18.4163 -4.35419 -0.0387495 -0.191011 0.00407393 1.05879e-022 8.97127 1.78542 0.0875666 0.282943 -0.0271747 6.14423 15.3316 -3.79324 -0.743252 -0.0575777 4.26944 9.01906 -1.11411 -1.79347 -1.42378 0.931752 -3.48511 27.687 0 0 0.0194429 -9.33216 4.64032e-012 27.8738 0 0 2.42288 -1.19099 -0.688113 -6.14423 15.3316 -3.79324 6.53105 0.250732 -1.78797 -9.01884 -1.11411 -1.79347 -7.43748 9.75353 11.4328 -27.0381 0.00109999 5.96046e-008 2.24216 -9.83978 1.28094e-007 -28.5227 0 0 -8.08254 -0.441397 2.00013 
-27.3876 93.2447 -29.406 -0.375566 0.019326 0.0332257 9.63379 -0.250344 -7.15256e-007 5.37513 -1.57755 9.92128 0 -40.4779 -1.71313 0.0548103 2.66248 -0.121913 0.0126047 -40.4416 -0.864524 0.267489 -0.0879328 -0.00552328 -0.183287 -12.1867 8.28226 4.23581e-011 -1.205e-010 -1.02754e-010 -9.63379 -0.250344 -7.15256e-007 -8.13756 -1.21954 0.107032 0 -40.478 -1.71313 4.30184 4.4044 3.50253 -0.0126047 -40.4414 -0.864524 -0.151915 -1.04993 0.0021644 0.183287 -12.1867 8.28226 5.37423e-011 -2.03436e-012 1.67249e-011 -2.64698e-023 5.60909 -1.89659 0.401742 5.10959e-005 -0.0244136 0 6.56349 1.09934 0.0152463 -0.00601447 -0.0100291 0 7.57662 1.04304 0.0152463 -0.0060107 -0.0100305 0 8.29213 0.399731 0.0152463 -0.00600693 -0.0100319 0 8.9581 -0.526302 0.0152462 -0.00600317 -0.0100333 0 18.4163 -4.35419 -0.0523597 -0.208312 0.00653106 1.05879e-022 8.97127 1.78542 0.112182 0.331342 -0.0343306 6.14423 15.3316 -3.79324 -0.720681 -0.0575771 4.27761 9.01906 -1.11411 -1.79347 -1.42672 0.918148 -3.49616 27.687 0 0 0.0266852 -9.30048 4.6399e-012 27.8738 0 0 2.44882 -1.18486 -0.732079 -6.14423 15.3316 -3.79324 6.54505 0.250732 -1.78963 -9.01884 -1.11411 -1.79347 -7.43112 9.75736 11.4229 -27.0381 0.00109999 5.96046e-008 2.23364 -9.88103 1.2811e-007 -28.5227 0 0 -8.04442 -0.427427 1.81335 
-27.3889 93.245 -29.4075 -0.375569 0.020409 0.0380427 9.63379 -0.250344 -7.15256e-007 5.37673 -1.58027 9.92127 0 -40.4779 -1.71313 0.0557691 2.66144 -0.121913 0.0126047 -40.4416 -0.864524 0.267489 -0.0879328 -0.00552328 -0.183287 -12.1867 8.28226 4.23581e-011 -1.205e-010 -1.02754e-010 -9.63379 -0.250344 -7.15256e-007 -8.1375 -1.21987 0.109915 0 -40.478 -1.71313 4.30323 4.40221 3.50182 -0.0126047 -40.4414 -0.864524 -0.151915 -1.04894 0.0021644 0.183287 -12.1867 8.28226 5.37423e-011 -2.03436e-012 1.67249e-011 -2.64698e-023 5.60909 -1.89659 0.401742 5.10959e-005 -0.0244136 0 6.56349 1.09934 0.0152461 -0.00601447 -0.0124325 0 7.57662 1.04304 0.015246 -0.0060107 -0.012434 0 8.29213 0.399731 0.015246 -0.00600693 -0.0124356 0 8.9581 -0.526302 0.015246 -0.00600317 -0.0124372 0 18.4163 -4.35419 -0.0679767 -0.202634 0.0109764 1.05879e-022 8.97127 1.78542 0.129322 0.357252 -0.0384573 6.14423 15.3316 -3.79324 -0.702077 -0.0575769 4.28006 9.01906 -1.11411 -1.79347 -1.43059 0.909712 -3.50145 27.687 0 0 0.0314635 -9.28637 4.63971e-012 27.8738 0 0 2.47142 -1.17903 -0.764411 -6.14423 15.3316 -3.79324 6.55488 0.250732 -1.78818 -9.01884 -1.11411 -1.79347 -7.42197 9.76526 11.4057 -27.0381 0.00109999 5.96046e-008 2.22766 -9.91249 1.28123e-007 -28.5227 0 0 -8.00898 -0.41579 1.6689 
-27.3899 93.2445 -29.409 -0.375125 0.0184707 0.0435443 9.63379 -0.250344 -7.15256e-007 5.37575 -1.57928 9.91873 0 -40.4779 -1.71313 0.0587723 2.66004 -0.121913 0.0126047 -40.4416 -0.864524 0.267489 -0.0879328 -0.00552328 -0.183287 -12.1867 8.28226 4.23581e-011 -1.205e-010 -1.02754e-010 -9.63379 -0.250344 -7.15256e-007 -8.13741 -1.21778 0.114195 0 -40.478 -1.71313 4.30625 4.40486 3.49932 -0.0126047 -40.4414 -0.864524 -0.151915 -1.04987 0.0021644 0.183287 -12.1867 8.28226 5.37423e-011 -2.03436e-012 1.67249e-011 -2.64698e-023 5.60909 -1.89659 0.401742 5.10959e-005 -0.0244136 0 6.56349 1.09934 0.0163402 -0.00521015 -0.0146738 0 7.57662 1.04304 0.0163401 -0.00520576 -0.0146753 0 8.29213 0.399731 0.0163401 -0.00520137 -0.0146769 0 8.9581 -0.526302 0.01634 -0.00519698 -0.0146784 0 18.4163 -4.35419 -0.0852558 -0.161716 0.0177814 1.05879e-022 8.97127 1.78542 0.135842 0.351533 -0.0383851 6.14423 15.3316 -3.79324 -0.688327 -0.0575774 4.2737 9.01906 -1.11411 -1.79347 -1.43494 0.9078 -3.49807 27.687 0 0 0.0329581 -9.29588 4.63984e-012 27.8738 0 0 2.49134 -1.17318 -0.783967 -6.14423 15.3316 -3.79324 6.5587 0.250733 -1.78192 -9.01884 -1.11411 -1.79347 -7.40752 9.77921 11.3777 -27.0381 0.00109999 5.96046e-008 2.22479 -9.93342 1.28131e-007 -28.5227 0 0 -7.97378 -0.40646 1.57358 
